<?xml version="1.0" standalone="no"?>
<!DOCTYPE svg PUBLIC "-//W3C//DTD SVG 20010904//EN"
 "http://www.w3.org/TR/2001/REC-SVG-20010904/DTD/svg10.dtd">
<svg version="1.0" xmlns="http://www.w3.org/2000/svg"
 width="1024.000000pt" height="1024.000000pt" viewBox="0 0 1024.000000 1024.000000"
 preserveAspectRatio="xMidYMid meet">

<g transform="translate(0.000000,1024.000000) scale(0.100000,-0.100000)"
fill="#000000" stroke="none">
<path d="M3745 9744 c-273 -57 -471 -226 -551 -471 -26 -80 -29 -101 -29 -228
0 -121 3 -150 24 -214 29 -88 105 -206 164 -255 23 -19 39 -37 36 -41 -4 -3
-73 -35 -153 -70 -782 -341 -1340 -865 -1720 -1615 -209 -413 -350 -861 -415
-1320 -41 -291 -46 -371 -45 -705 0 -372 13 -537 69 -871 56 -335 155 -692
277 -993 58 -146 179 -395 209 -431 l20 -25 -5 30 c-15 81 -38 407 -45 635
-21 637 35 1177 184 1772 197 786 586 1507 1085 2008 388 391 828 647 1230
716 116 20 316 14 400 -11 138 -42 259 -138 314 -249 40 -80 48 -203 18 -288
-38 -106 -105 -187 -223 -264 -127 -83 -244 -123 -684 -233 -318 -79 -433
-115 -549 -170 -261 -123 -388 -328 -373 -601 11 -193 92 -329 244 -413 75
-40 154 -57 274 -57 191 0 315 34 658 180 228 97 302 120 377 120 129 -2 201
-72 212 -205 6 -82 -18 -162 -74 -247 -114 -171 -306 -283 -889 -518 -464
-188 -586 -251 -698 -364 -110 -111 -157 -225 -164 -396 -8 -187 27 -290 137
-400 105 -106 223 -148 375 -136 199 17 328 71 594 252 170 114 251 154 329
161 147 13 223 -53 258 -224 35 -169 -24 -382 -152 -549 -78 -103 -261 -276
-402 -381 -116 -87 -185 -132 -522 -339 -265 -163 -407 -285 -506 -434 -153
-231 -149 -540 11 -786 53 -81 197 -221 276 -267 161 -94 308 -131 494 -124
226 9 380 74 539 226 89 86 159 177 345 448 209 304 281 370 436 395 117 20
244 -15 324 -88 87 -78 120 -166 151 -406 25 -193 52 -309 91 -396 129 -286
405 -416 759 -358 163 27 299 95 408 205 262 265 254 642 -21 928 l-40 42 44
11 c539 141 1097 576 1498 1165 403 593 674 1366 778 2220 25 205 25 746 -1
940 -86 665 -261 1162 -577 1635 -132 200 -286 378 -409 474 l-60 47 36 -83
c332 -762 420 -1530 279 -2427 -106 -677 -295 -1230 -613 -1791 -261 -462
-582 -828 -922 -1053 -330 -218 -604 -266 -816 -142 -60 35 -130 117 -153 181
-27 71 -28 173 -2 231 57 124 224 233 581 378 241 97 431 217 557 348 138 146
184 248 191 423 7 179 -29 285 -133 390 -75 76 -142 104 -266 111 -155 10
-311 -50 -579 -221 -166 -107 -373 -211 -460 -232 -238 -59 -369 31 -387 266
-11 145 33 267 134 380 129 142 460 315 958 500 121 45 256 99 300 120 242
115 415 283 475 461 67 195 12 446 -128 587 -98 99 -208 142 -360 142 -176 0
-308 -58 -537 -235 -170 -132 -264 -175 -377 -175 -88 1 -140 26 -169 82 -31
58 -39 259 -15 360 33 140 113 276 258 435 107 118 189 193 484 440 358 300
532 491 635 698 64 129 89 230 89 355 0 287 -173 545 -456 680 -140 67 -225
85 -409 85 -183 0 -269 -18 -385 -82 -156 -85 -239 -177 -395 -442 -103 -173
-172 -249 -273 -298 -75 -37 -78 -38 -192 -38 -106 0 -120 3 -178 29 -116 54
-175 151 -212 347 -53 289 -114 425 -241 544 -139 131 -294 186 -517 184 -64
-1 -126 -3 -137 -5z"/>
</g>
</svg>
